# xmcd CD database file
#
# Track frame offsets:
#	150
#	19420
#	37280
#	54842
#	72965
#	91550
#	109870
#	129267
#	142197
#	159527
#	181615
#
# Disc length: 2649 seconds
#
# Revision: 0
# Processed by: cddbd v1.5.1PL2 Copyright (c) Steve Scherf et al.
# Submitted via: CDex 1.51
#
DISCID=8f0a570b
DTITLE=SHINJI MIYAKE and NASHVILLE CATS - 615
DYEAR=1900
DGENRE=R&B
TTITLE0=1970
TTITLE1=SWAMP MAMA
TTITLE2=MY BABY
TTITLE3=雨に消える
TTITLE4=BACK DOORから
TTITLE5=BLUES PARADE
TTITLE6=アバンチュール
TTITLE7=メチャクチャな奴
TTITLE8=君が欲しくてたまらない
TTITLE9=フェニックス・ハネムーン
TTITLE10=You can't say it all
EXTD=
EXTT0=
EXTT1=
EXTT2=
EXTT3=
EXTT4=
EXTT5=
EXTT6=
EXTT7=
EXTT8=
EXTT9=
EXTT10=
PLAYORDER=
